<svg width="18" height="18" viewBox="0 0 18 18" fill="none" xmlns="http://www.w3.org/2000/svg">
<path d="M8.99999 2.99995C10.575 2.99995 12.075 3.59995 13.2 4.72495C15.525 7.04995 15.525 10.875 13.2 13.2C12.0659 14.3971 10.5612 14.959 9.04182 14.9747C8.57989 14.9795 8.27369 14.5302 8.38573 14.082V14.082C8.47965 13.7063 8.83924 13.4664 9.22611 13.4489C10.2875 13.4007 11.3462 12.9538 12.15 12.15C13.875 10.425 13.875 7.57495 12.15 5.77495C11.325 4.94995 10.125 4.49995 8.99999 4.49995V5.53574C8.99999 6.42664 7.92285 6.87281 7.29288 6.24284L5.9571 4.90706C5.56657 4.51653 5.56657 3.88337 5.9571 3.49284L7.29288 2.15706C7.92285 1.52709 8.99999 1.97326 8.99999 2.86416V2.99995ZM4.72499 13.2C3.025 11.5 2.57904 9.00194 3.38711 6.84885C3.56874 6.36491 4.1832 6.28316 4.54871 6.64867V6.64867C4.78835 6.88831 4.84071 7.25245 4.7308 7.57303C4.19876 9.12476 4.57183 10.9391 5.84999 12.15C6.06693 12.3669 6.30897 12.5587 6.57612 12.7255C6.9163 12.9378 7.11296 13.3401 6.99773 13.7241V13.7241C6.86463 14.1678 6.37606 14.4054 5.97611 14.1717C5.52803 13.9099 5.11099 13.5859 4.72499 13.2Z" fill="black"/>
</svg>
